#!OML:ASF F:\VICON\USERDATA\INSTALL\rory3\rory3.ASF
:FULLY-SPECIFIED
:DEGREES
217
root 0.494277 18.044 8.6006 -6.03974 -2.65756 -7.13452
lowerback 15.4266 -0.242468 5.42891
upperback 0.044272 1.01593 4.12531
thorax -8.63062 0.354421 1.13925
lowerneck -11.2082 -0.938189 -2.25232
upperneck 27.3919 -0.62529 -0.762309
head 10.6369 -0.610479 0.0362397
rclavicle -1.00014e-014 1.74931e-014
rhumerus -31.1992 -6.61508 -78.5773
rradius 33.083
rwrist -0.651799
rhand -13.6174 9.23352
rfingers 7.12502
rthumb 12.498 -20.3727
lclavicle -1.00014e-014 1.74931e-014
lhumerus -39.8764 2.56117 87.6872
lradius 42.0796
lwrist 6.29887
lhand -12.5573 51.2167
lfingers 7.12502
lthumb 13.5199 80.7578
rfemur 0.347596 5.76717 34.8904
rtibia 24.7158
rfoot -13.5912 -7.94142
rtoes 12.8808
lfemur -24.8922 0.353496 -13.757
ltibia 58.0159
lfoot -7.01177 3.30732
ltoes -15.0019
218
root 0.491071 18.0375 8.73136 -5.92344 -2.52315 -7.03062
lowerback 16.1633 -0.268115 5.32637
upperback -0.533546 1.06272 4.06768
thorax -9.68544 0.358114 1.14047
lowerneck -10.8284 -0.978778 -2.34848
upperneck 27.8368 -0.662595 -0.787252
head 10.7291 -0.644137 0.0393158
rclavicle 6.02255e-015 3.81667e-014
rhumerus -31.8378 -5.96289 -78.6309
rradius 33.7488
rwrist -0.967072
rhand -13.7164 8.97843
rfingers 7.12502
rthumb 12.4026 -20.6336
lclavicle 6.02255e-015 3.81667e-014
lhumerus -40.6573 2.54476 87.6864
lradius 42.1748
lwrist 6.31235
lhand -12.4923 51.7164
lfingers 7.12502
lthumb 13.5826 81.2534
rfemur 0.82691 5.81363 34.8735
rtibia 24.3813
rfoot -13.8345 -8.15128
rtoes 13.4975
lfemur -25.4827 0.244563 -13.8941
ltibia 56.2753
lfoot -7.27996 4.02114
ltoes -15.4033
219
root 0.487624 18.0359 8.88053 -5.90022 -2.32007 -6.86209
lowerback 15.5753 -0.280323 5.22577
upperback -0.167895 0.942853 3.96847
thorax -8.94801 0.317585 1.10557
lowerneck -11.3676 -1.00233 -2.33981
upperneck 27.8165 -0.694088 -0.737631
head 10.8289 -0.651989 0.049099
rclavicle -1.45703e-014 4.37326e-015
rhumerus -30.928 -5.76939 -78.8274
rradius 34.0193
rwrist -1.22735
rhand -13.7408 9.09872
rfingers 7.12502
rthumb 12.3791 -20.5148
lclavicle -1.45703e-014 4.37326e-015
lhumerus -39.8003 2.40533 87.7559
lradius 41.8214
lwrist 6.40261
lhand -12.5547 51.7654
lfingers 7.12502
lthumb 13.5224 81.3063
rfemur 1.53711 5.65711 34.7307
rtibia 23.9972
rfoot -14.3259 -8.04498
rtoes 15.0418
lfemur -25.7717 0.0764446 -14.1171
ltibia 54.3872
lfoot -7.61946 4.84238
ltoes -15.1661
220
root 0.483042 18.0357 9.04014 -5.88619 -2.12762 -6.72509
lowerback 15.145 -0.309123 5.15245
upperback -0.0134476 0.833915 3.84128
thorax -8.53484 0.273162 1.02777
lowerneck -11.4594 -0.967746 -2.30525
upperneck 27.8254 -0.704022 -0.544715
head 10.8504 -0.629906 0.111051
rclavicle 7.87684e-015 1.98785e-015
rhumerus -30.4077 -5.58895 -79.0386
rradius 34.319
rwrist -1.47494
rhand -13.8451 9.44314
rfingers 7.12502
rthumb 12.2784 -20.1764
lclavicle 7.87684e-015 1.98785e-015
lhumerus -39.543 2.26152 87.7331
lradius 41.6547
lwrist 6.59908
lhand -12.6899 51.1416
lfingers 7.12502
lthumb 13.3921 80.6912
rfemur 2.36872 5.57044 34.6393
rtibia 23.5884
rfoot -14.7956 -8.02138
rtoes 15.9516
lfemur -25.9008 -0.166071 -14.283
ltibia 52.374
lfoot -8.44817 5.7465
ltoes -16.3431
221
root 0.481743 18.0305 9.18471 -5.72913 -2.04211 -6.87647
lowerback 14.9729 -0.33359 5.34565
upperback -0.0742805 0.826334 3.85537
thorax -8.50218 0.261688 0.935845
lowerneck -11.1901 -0.953241 -2.5503
upperneck 27.7436 -0.710853 -0.276705
head 10.7685 -0.625593 0.250349
rclavicle 1.89839e-014 7.55382e-015
rhumerus -30.1182 -5.1026 -79.1661
rradius 34.7057
rwrist -1.90132
rhand -13.8692 9.24415
rfingers 7.12502
rthumb 12.2552 -20.3768
lclavicle 1.89839e-014 7.55382e-015
lhumerus -39.8444 2.4726 87.7254
lradius 41.9749
lwrist 6.45127
lhand -12.8502 50.9362
lfingers 7.12502
lthumb 13.2376 80.4959
rfemur 2.99539 5.62847 34.8696
rtibia 23.0853
rfoot -14.9671 -8.1882
rtoes 15.9153
lfemur -26.247 -0.35527 -14.0753
ltibia 50.2945
lfoot -9.03 6.49397
ltoes -16.2922
222
root 0.479672 18.0274 9.31919 -5.62448 -1.83756 -6.99309
lowerback 15.1564 -0.369818 5.44656
upperback -0.334722 0.834806 3.9111
thorax -8.89156 0.253964 0.943949
lowerneck -10.5329 -0.985122 -2.76368
upperneck 27.5979 -0.736748 -0.25543
head 10.5862 -0.655191 0.294601
rclavicle 1.34746e-014 9.54166e-015
rhumerus -30.2441 -4.64066 -79.1121
rradius 35.0795
rwrist -2.23088
rhand -13.9261 9.22499
rfingers 7.12502
rthumb 12.2004 -20.3992
lclavicle 1.34746e-014 9.54166e-015
lhumerus -40.4707 2.72311 87.7666
lradius 42.3472
lwrist 6.06908
lhand -12.5938 51.033
lfingers 7.12502
lthumb 13.4847 80.5764
rfemur 3.59616 5.6424 35.0727
rtibia 22.5688
rfoot -15.1513 -8.45388
rtoes 15.812
lfemur -26.6017 -0.749156 -13.8895
ltibia 48.1443
lfoot -8.94821 7.0975
ltoes -13.8755
223
root 0.479219 18.0269 9.46303 -5.53276 -1.61086 -6.98463
lowerback 15.2194 -0.445956 5.40274
upperback -0.420598 0.736873 3.90569
thorax -9.02427 0.205943 0.987321
lowerneck -10.3809 -0.943653 -2.59241
upperneck 27.4944 -0.651951 -0.503807
head 10.5149 -0.62654 0.187518
rclavicle -2.09384e-015 -7.55382e-015
rhumerus -30.0071 -4.38581 -79.1683
rradius 35.2478
rwrist -2.21931
rhand -13.9669 9.71491
rfingers 7.12502
rthumb 12.1611 -19.9116
lclavicle -2.09384e-015 -7.55382e-015
lhumerus -40.4949 2.77007 87.7808
lradius 42.2782
lwrist 5.94999
lhand -12.1367 51.1795
lfingers 7.12502
lthumb 13.9252 80.6932
rfemur 4.29775 5.54239 35.1015
rtibia 21.9512
rfoot -15.2969 -8.67871
rtoes 15.3014
lfemur -26.8166 -1.21245 -13.8451
ltibia 45.9399
lfoot -8.96936 7.6932
ltoes -11.2541
224
root 0.481101 18.0119 9.61978 -5.49399 -1.66391 -7.19256
lowerback 15.1124 -0.409999 5.62874
upperback -0.425677 0.817592 3.92174
thorax -8.96527 0.235599 0.858469
lowerneck -10.2639 -0.920933 -2.39066
upperneck 27.4649 -0.63805 -0.607506
head 10.479 -0.610757 0.118228
rclavicle 1.17206e-014 9.54166e-015
rhumerus -29.8078 -4.21942 -79.2189
rradius 35.4858
rwrist -2.37416
rhand -14.104 9.57475
rfingers 7.12502
rthumb 12.0289 -20.0596
lclavicle 1.17206e-014 9.54166e-015
lhumerus -40.3908 2.63032 87.8287
lradius 42.05
lwrist 6.05296
lhand -11.9251 51.7244
lfingers 7.12502
lthumb 14.1292 81.224
rfemur 5.15102 5.59374 35.3866
rtibia 21.2852
rfoot -15.2545 -8.77805
rtoes 15.1497
lfemur -26.8383 -1.47514 -13.5297
ltibia 43.757
lfoot -9.48896 8.08667
ltoes -10.5537
225
root 0.479371 17.9995 9.77303 -5.55114 -1.79124 -7.49426
lowerback 15.1119 -0.359074 5.85676
upperback -0.412272 0.932376 4.00398
thorax -8.94656 0.282818 0.793222
lowerneck -10.4256 -0.999459 -2.56446
upperneck 27.6736 -0.755026 -0.427298
head 10.5915 -0.66328 0.197084
rclavicle 2.21932e-014 1.03368e-014
rhumerus -29.6949 -4.01558 -79.2338
rradius 35.9049
rwrist -2.55925
rhand -14.1201 9.13822
rfingers 7.12502
rthumb 12.0133 -20.497
lclavicle 2.21932e-014 1.03368e-014
lhumerus -40.3928 2.69061 87.8346
lradius 41.8656
lwrist 6.09527
lhand -11.9995 51.8993
lfingers 7.12502
lthumb 14.0574 81.4039
rfemur 6.21204 5.79231 35.8373
rtibia 20.5112
rfoot -15.2382 -8.79558
rtoes 15.3852
lfemur -26.6828 -1.69717 -13.0452
ltibia 41.5062
lfoot -9.92609 8.29127
ltoes -11.2005
226
root 0.47802 17.9815 9.91231 -5.47178 -1.66937 -7.71282
lowerback 14.9586 -0.398495 6.03241
upperback -0.297349 0.890872 4.02882
thorax -8.73295 0.260951 0.727421
lowerneck -10.7979 -1.02363 -2.6466
upperneck 27.7592 -0.794071 -0.297407
head 10.6985 -0.675329 0.25104
rclavicle -1.79062e-014 -4.8901e-014
rhumerus -29.2419 -3.93911 -79.3377
rradius 36.2091
rwrist -2.58943
rhand -13.9566 9.12408
rfingers 7.12502
rthumb 12.1709 -20.5019
lclavicle -1.79062e-014 -4.8901e-014
lhumerus -40.0186 2.68469 87.8218
lradius 41.589
lwrist 6.00801
lhand -12.1809 51.5734
lfingers 7.12502
lthumb 13.8827 81.09
rfemur 7.11622 5.83411 36.1521
rtibia 19.7085
rfoot -15.2584 -8.74598
rtoes 15.4847
lfemur -26.7823 -2.24126 -12.6487
ltibia 39.2
lfoot -10.0549 8.55451
ltoes -13.1221
227
root 0.484178 17.9796 10.0563 -5.28094 -1.55527 -7.60331
lowerback 15.0855 -0.377693 6.00285
upperback -0.460525 0.930028 3.94895
thorax -8.98178 0.272398 0.652984
lowerneck -10.7827 -0.97789 -2.34238
upperneck 27.7601 -0.708734 -0.608521
head 10.6918 -0.640892 0.0976943
rclavicle -8.21229e-015 -3.18055e-014
rhumerus -29.2228 -3.79772 -79.3425
rradius 36.4931
rwrist -2.67635
rhand -14.1186 9.57549
rfingers 7.12502
rthumb 12.0148 -20.0596
lclavicle -8.21229e-015 -3.18055e-014
lhumerus -40.0314 2.48427 87.9049
lradius 41.3699
lwrist 5.98505
lhand -12.1797 51.0635
lfingers 7.12502
lthumb 13.8838 80.5801
rfemur 8.00179 5.5088 35.9396
rtibia 18.6964
rfoot -15.1498 -8.39865
rtoes 15.2271
lfemur -26.9181 -2.93806 -12.6135
ltibia 36.8053
lfoot -10.1304 9.02752
ltoes -14.8161
228
root 0.49437 17.987 10.2081 -4.97454 -1.4275 -7.33613
lowerback 14.7532 -0.320665 5.88094
upperback -0.503605 0.947884 3.85167
thorax -8.8381 0.286443 0.610917
lowerneck -11.0806 -1.20725 -2.84217
upperneck 28.0084 -1.01409 -0.244206
head 10.8537 -0.791674 0.274553
rclavicle 1.06955e-014 -6.36111e-015
rhumerus -28.9894 -3.68154 -79.2751
rradius 36.7907
rwrist -3.07454
rhand -14.1292 9.76194
rfingers 7.12502
rthumb 12.0045 -19.8738
lclavicle 1.06955e-014 -6.36111e-015
lhumerus -39.8832 2.65043 87.9701
lradius 41.2236
lwrist 5.90029
lhand -12.1747 51.1352
lfingers 7.12502
lthumb 13.8887 80.6514
rfemur 8.7949 5.17731 35.5163
rtibia 17.607
rfoot -14.9319 -8.13938
rtoes 14.7827
lfemur -27.0245 -3.79249 -12.704
ltibia 34.3515
lfoot -10.2471 9.42171
ltoes -15.5936
